<svg width="296" height="80" viewBox="0 0 296 80" fill="none" xmlns="http://www.w3.org/2000/svg">
<path d="M119.246 25.0508L114.754 23.9766L116.375 9.5625H132.352V14.1133H121.004L120.301 20.4219C120.678 20.2005 121.251 19.9661 122.02 19.7188C122.788 19.4583 123.647 19.3281 124.598 19.3281C125.978 19.3281 127.202 19.543 128.27 19.9727C129.337 20.4023 130.242 21.0273 130.984 21.8477C131.74 22.668 132.312 23.6706 132.703 24.8555C133.094 26.0404 133.289 27.3815 133.289 28.8789C133.289 30.1419 133.094 31.3464 132.703 32.4922C132.312 33.625 131.72 34.6406 130.926 35.5391C130.132 36.4245 129.135 37.1211 127.938 37.6289C126.74 38.1367 125.32 38.3906 123.68 38.3906C122.456 38.3906 121.271 38.2083 120.125 37.8438C118.992 37.4792 117.97 36.9388 117.059 36.2227C116.16 35.5065 115.438 34.6406 114.891 33.625C114.357 32.5964 114.077 31.4245 114.051 30.1094H119.637C119.715 30.9167 119.923 31.6133 120.262 32.1992C120.613 32.7721 121.076 33.2148 121.648 33.5273C122.221 33.8398 122.892 33.9961 123.66 33.9961C124.376 33.9961 124.988 33.8594 125.496 33.5859C126.004 33.3125 126.414 32.9349 126.727 32.4531C127.039 31.9583 127.267 31.3854 127.41 30.7344C127.566 30.0703 127.645 29.3542 127.645 28.5859C127.645 27.8177 127.553 27.1211 127.371 26.4961C127.189 25.8711 126.909 25.3307 126.531 24.875C126.154 24.4193 125.672 24.0677 125.086 23.8203C124.513 23.5729 123.842 23.4492 123.074 23.4492C122.033 23.4492 121.225 23.612 120.652 23.9375C120.092 24.263 119.624 24.6341 119.246 25.0508ZM156.062 21.2812V26.2031C156.062 28.3385 155.835 30.181 155.379 31.7305C154.923 33.2669 154.266 34.5299 153.406 35.5195C152.56 36.4961 151.551 37.2188 150.379 37.6875C149.207 38.1562 147.905 38.3906 146.473 38.3906C145.327 38.3906 144.259 38.2474 143.27 37.9609C142.28 37.6615 141.388 37.1992 140.594 36.5742C139.812 35.9492 139.135 35.1615 138.562 34.2109C138.003 33.2474 137.573 32.1016 137.273 30.7734C136.974 29.4453 136.824 27.9219 136.824 26.2031V21.2812C136.824 19.1458 137.052 17.3164 137.508 15.793C137.977 14.2565 138.634 13 139.48 12.0234C140.34 11.0469 141.355 10.3307 142.527 9.875C143.699 9.40625 145.001 9.17188 146.434 9.17188C147.579 9.17188 148.641 9.32161 149.617 9.62109C150.607 9.90755 151.499 10.3568 152.293 10.9688C153.087 11.5807 153.764 12.3685 154.324 13.332C154.884 14.2826 155.314 15.4219 155.613 16.75C155.913 18.0651 156.062 19.5755 156.062 21.2812ZM150.418 26.9453V20.5195C150.418 19.4909 150.359 18.5924 150.242 17.8242C150.138 17.056 149.975 16.4049 149.754 15.8711C149.533 15.3242 149.259 14.8815 148.934 14.543C148.608 14.2044 148.237 13.957 147.82 13.8008C147.404 13.6445 146.941 13.5664 146.434 13.5664C145.796 13.5664 145.229 13.6901 144.734 13.9375C144.253 14.1849 143.842 14.582 143.504 15.1289C143.165 15.6628 142.905 16.3789 142.723 17.2773C142.553 18.1628 142.469 19.2435 142.469 20.5195V26.9453C142.469 27.974 142.521 28.8789 142.625 29.6602C142.742 30.4414 142.911 31.112 143.133 31.6719C143.367 32.2188 143.641 32.668 143.953 33.0195C144.279 33.3581 144.65 33.6055 145.066 33.7617C145.496 33.918 145.965 33.9961 146.473 33.9961C147.098 33.9961 147.651 33.8724 148.133 33.625C148.628 33.3646 149.044 32.9609 149.383 32.4141C149.734 31.8542 149.995 31.125 150.164 30.2266C150.333 29.3281 150.418 28.2344 150.418 26.9453ZM166.336 9.5625V38H160.477V9.5625H166.336ZM183.367 9.5625L172.098 23.6055L165.594 30.5977L164.539 25.0508L168.934 19.0352L176.18 9.5625H183.367ZM176.707 38L168.328 24.8555L172.664 21.2227L183.641 38H176.707Z" fill="black"/>
<path d="M119.797 61.625H121.258L124.984 70.8984L128.703 61.625H130.172L125.547 73H124.406L119.797 61.625ZM119.32 61.625H120.609L120.82 68.5625V73H119.32V61.625ZM129.352 61.625H130.641V73H129.141V68.5625L129.352 61.625ZM136.578 73.1562C135.99 73.1562 135.456 73.0573 134.977 72.8594C134.503 72.6562 134.094 72.3724 133.75 72.0078C133.411 71.6432 133.151 71.2109 132.969 70.7109C132.786 70.2109 132.695 69.6641 132.695 69.0703V68.7422C132.695 68.0547 132.797 67.4427 133 66.9062C133.203 66.3646 133.479 65.9062 133.828 65.5312C134.177 65.1562 134.573 64.8724 135.016 64.6797C135.458 64.487 135.917 64.3906 136.391 64.3906C136.995 64.3906 137.516 64.4948 137.953 64.7031C138.396 64.9115 138.758 65.2031 139.039 65.5781C139.32 65.9479 139.529 66.3854 139.664 66.8906C139.799 67.3906 139.867 67.9375 139.867 68.5312V69.1797H133.555V68H138.422V67.8906C138.401 67.5156 138.323 67.151 138.188 66.7969C138.057 66.4427 137.849 66.151 137.562 65.9219C137.276 65.6927 136.885 65.5781 136.391 65.5781C136.062 65.5781 135.76 65.6484 135.484 65.7891C135.208 65.9245 134.971 66.1276 134.773 66.3984C134.576 66.6693 134.422 67 134.312 67.3906C134.203 67.7812 134.148 68.2318 134.148 68.7422V69.0703C134.148 69.4714 134.203 69.849 134.312 70.2031C134.427 70.5521 134.591 70.8594 134.805 71.125C135.023 71.3906 135.286 71.599 135.594 71.75C135.906 71.901 136.26 71.9766 136.656 71.9766C137.167 71.9766 137.599 71.8724 137.953 71.6641C138.307 71.4557 138.617 71.1771 138.883 70.8281L139.758 71.5234C139.576 71.7995 139.344 72.0625 139.062 72.3125C138.781 72.5625 138.435 72.7656 138.023 72.9219C137.617 73.0781 137.135 73.1562 136.578 73.1562ZM143 66.3516V73H141.555V64.5469H142.922L143 66.3516ZM142.656 68.4531L142.055 68.4297C142.06 67.8516 142.146 67.3177 142.312 66.8281C142.479 66.3333 142.714 65.9036 143.016 65.5391C143.318 65.1745 143.677 64.8932 144.094 64.6953C144.516 64.4922 144.982 64.3906 145.492 64.3906C145.909 64.3906 146.284 64.4479 146.617 64.5625C146.951 64.6719 147.234 64.849 147.469 65.0938C147.708 65.3385 147.891 65.6562 148.016 66.0469C148.141 66.4323 148.203 66.9036 148.203 67.4609V73H146.75V67.4453C146.75 67.0026 146.685 66.6484 146.555 66.3828C146.424 66.112 146.234 65.9167 145.984 65.7969C145.734 65.6719 145.427 65.6094 145.062 65.6094C144.703 65.6094 144.375 65.6849 144.078 65.8359C143.786 65.987 143.534 66.1953 143.32 66.4609C143.112 66.7266 142.948 67.0312 142.828 67.375C142.714 67.7135 142.656 68.0729 142.656 68.4531ZM153.938 64.5469V65.6562H149.367V64.5469H153.938ZM150.914 62.4922H152.359V70.9062C152.359 71.1927 152.404 71.4089 152.492 71.5547C152.581 71.7005 152.695 71.7969 152.836 71.8438C152.977 71.8906 153.128 71.9141 153.289 71.9141C153.409 71.9141 153.534 71.9036 153.664 71.8828C153.799 71.8568 153.901 71.8359 153.969 71.8203L153.977 73C153.862 73.0365 153.711 73.0703 153.523 73.1016C153.341 73.138 153.12 73.1562 152.859 73.1562C152.505 73.1562 152.18 73.0859 151.883 72.9453C151.586 72.8047 151.349 72.5703 151.172 72.2422C151 71.9089 150.914 71.4609 150.914 70.8984V62.4922ZM155.094 68.8672V68.6875C155.094 68.0781 155.182 67.513 155.359 66.9922C155.536 66.4661 155.792 66.0104 156.125 65.625C156.458 65.2344 156.862 64.9323 157.336 64.7188C157.81 64.5 158.341 64.3906 158.93 64.3906C159.523 64.3906 160.057 64.5 160.531 64.7188C161.01 64.9323 161.417 65.2344 161.75 65.625C162.089 66.0104 162.346 66.4661 162.523 66.9922C162.701 67.513 162.789 68.0781 162.789 68.6875V68.8672C162.789 69.4766 162.701 70.0417 162.523 70.5625C162.346 71.0833 162.089 71.5391 161.75 71.9297C161.417 72.3151 161.013 72.6172 160.539 72.8359C160.07 73.0495 159.539 73.1562 158.945 73.1562C158.352 73.1562 157.818 73.0495 157.344 72.8359C156.87 72.6172 156.464 72.3151 156.125 71.9297C155.792 71.5391 155.536 71.0833 155.359 70.5625C155.182 70.0417 155.094 69.4766 155.094 68.8672ZM156.539 68.6875V68.8672C156.539 69.2891 156.589 69.6875 156.688 70.0625C156.786 70.4323 156.935 70.7604 157.133 71.0469C157.336 71.3333 157.589 71.5599 157.891 71.7266C158.193 71.888 158.544 71.9688 158.945 71.9688C159.341 71.9688 159.688 71.888 159.984 71.7266C160.286 71.5599 160.536 71.3333 160.734 71.0469C160.932 70.7604 161.081 70.4323 161.18 70.0625C161.284 69.6875 161.336 69.2891 161.336 68.8672V68.6875C161.336 68.2708 161.284 67.8776 161.18 67.5078C161.081 67.1328 160.93 66.8021 160.727 66.5156C160.529 66.224 160.279 65.9948 159.977 65.8281C159.68 65.6615 159.331 65.5781 158.93 65.5781C158.534 65.5781 158.185 65.6615 157.883 65.8281C157.586 65.9948 157.336 66.224 157.133 66.5156C156.935 66.8021 156.786 67.1328 156.688 67.5078C156.589 67.8776 156.539 68.2708 156.539 68.6875ZM166.047 65.875V73H164.602V64.5469H166.008L166.047 65.875ZM168.688 64.5L168.68 65.8438C168.56 65.8177 168.445 65.8021 168.336 65.7969C168.232 65.7865 168.112 65.7812 167.977 65.7812C167.643 65.7812 167.349 65.8333 167.094 65.9375C166.839 66.0417 166.622 66.1875 166.445 66.375C166.268 66.5625 166.128 66.7865 166.023 67.0469C165.924 67.3021 165.859 67.5833 165.828 67.8906L165.422 68.125C165.422 67.6146 165.471 67.1354 165.57 66.6875C165.674 66.2396 165.833 65.8438 166.047 65.5C166.26 65.151 166.531 64.8802 166.859 64.6875C167.193 64.4896 167.589 64.3906 168.047 64.3906C168.151 64.3906 168.271 64.4036 168.406 64.4297C168.542 64.4505 168.635 64.474 168.688 64.5ZM174.945 70.7578C174.945 70.5495 174.898 70.3568 174.805 70.1797C174.716 69.9974 174.531 69.8333 174.25 69.6875C173.974 69.5365 173.557 69.4062 173 69.2969C172.531 69.1979 172.107 69.0807 171.727 68.9453C171.352 68.8099 171.031 68.6458 170.766 68.4531C170.505 68.2604 170.305 68.0339 170.164 67.7734C170.023 67.513 169.953 67.2083 169.953 66.8594C169.953 66.526 170.026 66.2109 170.172 65.9141C170.323 65.6172 170.534 65.3542 170.805 65.125C171.081 64.8958 171.411 64.7161 171.797 64.5859C172.182 64.4557 172.612 64.3906 173.086 64.3906C173.763 64.3906 174.341 64.5104 174.82 64.75C175.299 64.9896 175.667 65.3099 175.922 65.7109C176.177 66.1068 176.305 66.5469 176.305 67.0312H174.859C174.859 66.7969 174.789 66.5703 174.648 66.3516C174.513 66.1276 174.312 65.9427 174.047 65.7969C173.786 65.651 173.466 65.5781 173.086 65.5781C172.685 65.5781 172.359 65.6406 172.109 65.7656C171.865 65.8854 171.685 66.0391 171.57 66.2266C171.461 66.4141 171.406 66.612 171.406 66.8203C171.406 66.9766 171.432 67.1172 171.484 67.2422C171.542 67.362 171.641 67.474 171.781 67.5781C171.922 67.6771 172.12 67.7708 172.375 67.8594C172.63 67.9479 172.956 68.0365 173.352 68.125C174.044 68.2812 174.615 68.4688 175.062 68.6875C175.51 68.9062 175.844 69.1745 176.062 69.4922C176.281 69.8099 176.391 70.1953 176.391 70.6484C176.391 71.0182 176.312 71.3568 176.156 71.6641C176.005 71.9714 175.784 72.237 175.492 72.4609C175.206 72.6797 174.862 72.8516 174.461 72.9766C174.065 73.0964 173.62 73.1562 173.125 73.1562C172.38 73.1562 171.75 73.0234 171.234 72.7578C170.719 72.4922 170.328 72.1484 170.062 71.7266C169.797 71.3047 169.664 70.8594 169.664 70.3906H171.117C171.138 70.7865 171.253 71.1016 171.461 71.3359C171.669 71.5651 171.924 71.7292 172.227 71.8281C172.529 71.9219 172.828 71.9688 173.125 71.9688C173.521 71.9688 173.852 71.9167 174.117 71.8125C174.388 71.7083 174.594 71.5651 174.734 71.3828C174.875 71.2005 174.945 70.9922 174.945 70.7578Z" fill="black"/>
</svg>
