<svg width="296" height="80" viewBox="0 0 296 80" fill="none" xmlns="http://www.w3.org/2000/svg">
<path d="M123.086 22.1602V27.0625H103.594V22.1602H123.086ZM116.016 14.4453V35.1484H110.684V14.4453H116.016ZM145.703 33.6055V38H126.25V34.25L135.449 24.3867C136.374 23.3581 137.103 22.4531 137.637 21.6719C138.171 20.8776 138.555 20.168 138.789 19.543C139.036 18.9049 139.16 18.2995 139.16 17.7266C139.16 16.8672 139.017 16.1315 138.73 15.5195C138.444 14.8945 138.021 14.4128 137.461 14.0742C136.914 13.7357 136.237 13.5664 135.43 13.5664C134.57 13.5664 133.828 13.7747 133.203 14.1914C132.591 14.6081 132.122 15.1875 131.797 15.9297C131.484 16.6719 131.328 17.5117 131.328 18.4492H125.684C125.684 16.7565 126.087 15.207 126.895 13.8008C127.702 12.3815 128.841 11.2552 130.312 10.4219C131.784 9.57552 133.529 9.15234 135.547 9.15234C137.539 9.15234 139.219 9.47786 140.586 10.1289C141.966 10.7669 143.008 11.6914 143.711 12.9023C144.427 14.1003 144.785 15.5326 144.785 17.1992C144.785 18.1367 144.635 19.0547 144.336 19.9531C144.036 20.8385 143.607 21.724 143.047 22.6094C142.5 23.4818 141.836 24.3672 141.055 25.2656C140.273 26.1641 139.408 27.0951 138.457 28.0586L133.516 33.6055H145.703ZM168.359 21.2812V26.2031C168.359 28.3385 168.132 30.181 167.676 31.7305C167.22 33.2669 166.562 34.5299 165.703 35.5195C164.857 36.4961 163.848 37.2188 162.676 37.6875C161.504 38.1562 160.202 38.3906 158.77 38.3906C157.624 38.3906 156.556 38.2474 155.566 37.9609C154.577 37.6615 153.685 37.1992 152.891 36.5742C152.109 35.9492 151.432 35.1615 150.859 34.2109C150.299 33.2474 149.87 32.1016 149.57 30.7734C149.271 29.4453 149.121 27.9219 149.121 26.2031V21.2812C149.121 19.1458 149.349 17.3164 149.805 15.793C150.273 14.2565 150.931 13 151.777 12.0234C152.637 11.0469 153.652 10.3307 154.824 9.875C155.996 9.40625 157.298 9.17188 158.73 9.17188C159.876 9.17188 160.938 9.32161 161.914 9.62109C162.904 9.90755 163.796 10.3568 164.59 10.9688C165.384 11.5807 166.061 12.3685 166.621 13.332C167.181 14.2826 167.611 15.4219 167.91 16.75C168.21 18.0651 168.359 19.5755 168.359 21.2812ZM162.715 26.9453V20.5195C162.715 19.4909 162.656 18.5924 162.539 17.8242C162.435 17.056 162.272 16.4049 162.051 15.8711C161.829 15.3242 161.556 14.8815 161.23 14.543C160.905 14.2044 160.534 13.957 160.117 13.8008C159.701 13.6445 159.238 13.5664 158.73 13.5664C158.092 13.5664 157.526 13.6901 157.031 13.9375C156.549 14.1849 156.139 14.582 155.801 15.1289C155.462 15.6628 155.202 16.3789 155.02 17.2773C154.85 18.1628 154.766 19.2435 154.766 20.5195V26.9453C154.766 27.974 154.818 28.8789 154.922 29.6602C155.039 30.4414 155.208 31.112 155.43 31.6719C155.664 32.2188 155.938 32.668 156.25 33.0195C156.576 33.3581 156.947 33.6055 157.363 33.7617C157.793 33.918 158.262 33.9961 158.77 33.9961C159.395 33.9961 159.948 33.8724 160.43 33.625C160.924 33.3646 161.341 32.9609 161.68 32.4141C162.031 31.8542 162.292 31.125 162.461 30.2266C162.63 29.3281 162.715 28.2344 162.715 26.9453ZM191.328 21.2812V26.2031C191.328 28.3385 191.1 30.181 190.645 31.7305C190.189 33.2669 189.531 34.5299 188.672 35.5195C187.826 36.4961 186.816 37.2188 185.645 37.6875C184.473 38.1562 183.171 38.3906 181.738 38.3906C180.592 38.3906 179.525 38.2474 178.535 37.9609C177.546 37.6615 176.654 37.1992 175.859 36.5742C175.078 35.9492 174.401 35.1615 173.828 34.2109C173.268 33.2474 172.839 32.1016 172.539 30.7734C172.24 29.4453 172.09 27.9219 172.09 26.2031V21.2812C172.09 19.1458 172.318 17.3164 172.773 15.793C173.242 14.2565 173.9 13 174.746 12.0234C175.605 11.0469 176.621 10.3307 177.793 9.875C178.965 9.40625 180.267 9.17188 181.699 9.17188C182.845 9.17188 183.906 9.32161 184.883 9.62109C185.872 9.90755 186.764 10.3568 187.559 10.9688C188.353 11.5807 189.03 12.3685 189.59 13.332C190.15 14.2826 190.579 15.4219 190.879 16.75C191.178 18.0651 191.328 19.5755 191.328 21.2812ZM185.684 26.9453V20.5195C185.684 19.4909 185.625 18.5924 185.508 17.8242C185.404 17.056 185.241 16.4049 185.02 15.8711C184.798 15.3242 184.525 14.8815 184.199 14.543C183.874 14.2044 183.503 13.957 183.086 13.8008C182.669 13.6445 182.207 13.5664 181.699 13.5664C181.061 13.5664 180.495 13.6901 180 13.9375C179.518 14.1849 179.108 14.582 178.77 15.1289C178.431 15.6628 178.171 16.3789 177.988 17.2773C177.819 18.1628 177.734 19.2435 177.734 20.5195V26.9453C177.734 27.974 177.786 28.8789 177.891 29.6602C178.008 30.4414 178.177 31.112 178.398 31.6719C178.633 32.2188 178.906 32.668 179.219 33.0195C179.544 33.3581 179.915 33.6055 180.332 33.7617C180.762 33.918 181.23 33.9961 181.738 33.9961C182.363 33.9961 182.917 33.8724 183.398 33.625C183.893 33.3646 184.31 32.9609 184.648 32.4141C185 31.8542 185.26 31.125 185.43 30.2266C185.599 29.3281 185.684 28.2344 185.684 26.9453Z" fill="black"/>
<path d="M126.688 69.3828H128.188C128.109 70.1016 127.904 70.7448 127.57 71.3125C127.237 71.8802 126.766 72.3307 126.156 72.6641C125.547 72.9922 124.786 73.1562 123.875 73.1562C123.208 73.1562 122.602 73.0312 122.055 72.7812C121.513 72.5312 121.047 72.1771 120.656 71.7188C120.266 71.2552 119.964 70.7005 119.75 70.0547C119.542 69.4036 119.438 68.6797 119.438 67.8828V66.75C119.438 65.9531 119.542 65.2318 119.75 64.5859C119.964 63.9349 120.268 63.3776 120.664 62.9141C121.065 62.4505 121.547 62.0938 122.109 61.8438C122.672 61.5938 123.305 61.4688 124.008 61.4688C124.867 61.4688 125.594 61.6302 126.188 61.9531C126.781 62.276 127.242 62.724 127.57 63.2969C127.904 63.8646 128.109 64.5234 128.188 65.2734H126.688C126.615 64.7422 126.479 64.2865 126.281 63.9062C126.083 63.5208 125.802 63.224 125.438 63.0156C125.073 62.8073 124.596 62.7031 124.008 62.7031C123.503 62.7031 123.057 62.7995 122.672 62.9922C122.292 63.1849 121.971 63.4583 121.711 63.8125C121.456 64.1667 121.263 64.5911 121.133 65.0859C121.003 65.5807 120.938 66.1302 120.938 66.7344V67.8828C120.938 68.4401 120.995 68.9635 121.109 69.4531C121.229 69.9427 121.409 70.3724 121.648 70.7422C121.888 71.112 122.193 71.4036 122.562 71.6172C122.932 71.8255 123.37 71.9297 123.875 71.9297C124.516 71.9297 125.026 71.8281 125.406 71.625C125.786 71.4219 126.073 71.1302 126.266 70.75C126.464 70.3698 126.604 69.9141 126.688 69.3828ZM129.641 68.8672V68.6875C129.641 68.0781 129.729 67.513 129.906 66.9922C130.083 66.4661 130.339 66.0104 130.672 65.625C131.005 65.2344 131.409 64.9323 131.883 64.7188C132.357 64.5 132.888 64.3906 133.477 64.3906C134.07 64.3906 134.604 64.5 135.078 64.7188C135.557 64.9323 135.964 65.2344 136.297 65.625C136.635 66.0104 136.893 66.4661 137.07 66.9922C137.247 67.513 137.336 68.0781 137.336 68.6875V68.8672C137.336 69.4766 137.247 70.0417 137.07 70.5625C136.893 71.0833 136.635 71.5391 136.297 71.9297C135.964 72.3151 135.56 72.6172 135.086 72.8359C134.617 73.0495 134.086 73.1562 133.492 73.1562C132.898 73.1562 132.365 73.0495 131.891 72.8359C131.417 72.6172 131.01 72.3151 130.672 71.9297C130.339 71.5391 130.083 71.0833 129.906 70.5625C129.729 70.0417 129.641 69.4766 129.641 68.8672ZM131.086 68.6875V68.8672C131.086 69.2891 131.135 69.6875 131.234 70.0625C131.333 70.4323 131.482 70.7604 131.68 71.0469C131.883 71.3333 132.135 71.5599 132.438 71.7266C132.74 71.888 133.091 71.9688 133.492 71.9688C133.888 71.9688 134.234 71.888 134.531 71.7266C134.833 71.5599 135.083 71.3333 135.281 71.0469C135.479 70.7604 135.628 70.4323 135.727 70.0625C135.831 69.6875 135.883 69.2891 135.883 68.8672V68.6875C135.883 68.2708 135.831 67.8776 135.727 67.5078C135.628 67.1328 135.477 66.8021 135.273 66.5156C135.076 66.224 134.826 65.9948 134.523 65.8281C134.227 65.6615 133.878 65.5781 133.477 65.5781C133.081 65.5781 132.732 65.6615 132.43 65.8281C132.133 65.9948 131.883 66.224 131.68 66.5156C131.482 66.8021 131.333 67.1328 131.234 67.5078C131.135 67.8776 131.086 68.2708 131.086 68.6875ZM144.32 71.0469V64.5469H145.773V73H144.391L144.32 71.0469ZM144.594 69.2656L145.195 69.25C145.195 69.8125 145.135 70.3333 145.016 70.8125C144.901 71.2865 144.714 71.6979 144.453 72.0469C144.193 72.3958 143.852 72.6693 143.43 72.8672C143.008 73.0599 142.495 73.1562 141.891 73.1562C141.479 73.1562 141.102 73.0964 140.758 72.9766C140.419 72.8568 140.128 72.6719 139.883 72.4219C139.638 72.1719 139.448 71.8464 139.312 71.4453C139.182 71.0443 139.117 70.5625 139.117 70V64.5469H140.562V70.0156C140.562 70.3958 140.604 70.7109 140.688 70.9609C140.776 71.2057 140.893 71.401 141.039 71.5469C141.19 71.6875 141.357 71.7865 141.539 71.8438C141.727 71.901 141.919 71.9297 142.117 71.9297C142.732 71.9297 143.219 71.8125 143.578 71.5781C143.938 71.3385 144.195 71.0182 144.352 70.6172C144.513 70.2109 144.594 69.7604 144.594 69.2656ZM149.422 65.875V73H147.977V64.5469H149.383L149.422 65.875ZM152.062 64.5L152.055 65.8438C151.935 65.8177 151.82 65.8021 151.711 65.7969C151.607 65.7865 151.487 65.7812 151.352 65.7812C151.018 65.7812 150.724 65.8333 150.469 65.9375C150.214 66.0417 149.997 66.1875 149.82 66.375C149.643 66.5625 149.503 66.7865 149.398 67.0469C149.299 67.3021 149.234 67.5833 149.203 67.8906L148.797 68.125C148.797 67.6146 148.846 67.1354 148.945 66.6875C149.049 66.2396 149.208 65.8438 149.422 65.5C149.635 65.151 149.906 64.8802 150.234 64.6875C150.568 64.4896 150.964 64.3906 151.422 64.3906C151.526 64.3906 151.646 64.4036 151.781 64.4297C151.917 64.4505 152.01 64.474 152.062 64.5ZM158.32 70.7578C158.32 70.5495 158.273 70.3568 158.18 70.1797C158.091 69.9974 157.906 69.8333 157.625 69.6875C157.349 69.5365 156.932 69.4062 156.375 69.2969C155.906 69.1979 155.482 69.0807 155.102 68.9453C154.727 68.8099 154.406 68.6458 154.141 68.4531C153.88 68.2604 153.68 68.0339 153.539 67.7734C153.398 67.513 153.328 67.2083 153.328 66.8594C153.328 66.526 153.401 66.2109 153.547 65.9141C153.698 65.6172 153.909 65.3542 154.18 65.125C154.456 64.8958 154.786 64.7161 155.172 64.5859C155.557 64.4557 155.987 64.3906 156.461 64.3906C157.138 64.3906 157.716 64.5104 158.195 64.75C158.674 64.9896 159.042 65.3099 159.297 65.7109C159.552 66.1068 159.68 66.5469 159.68 67.0312H158.234C158.234 66.7969 158.164 66.5703 158.023 66.3516C157.888 66.1276 157.688 65.9427 157.422 65.7969C157.161 65.651 156.841 65.5781 156.461 65.5781C156.06 65.5781 155.734 65.6406 155.484 65.7656C155.24 65.8854 155.06 66.0391 154.945 66.2266C154.836 66.4141 154.781 66.612 154.781 66.8203C154.781 66.9766 154.807 67.1172 154.859 67.2422C154.917 67.362 155.016 67.474 155.156 67.5781C155.297 67.6771 155.495 67.7708 155.75 67.8594C156.005 67.9479 156.331 68.0365 156.727 68.125C157.419 68.2812 157.99 68.4688 158.438 68.6875C158.885 68.9062 159.219 69.1745 159.438 69.4922C159.656 69.8099 159.766 70.1953 159.766 70.6484C159.766 71.0182 159.688 71.3568 159.531 71.6641C159.38 71.9714 159.159 72.237 158.867 72.4609C158.581 72.6797 158.237 72.8516 157.836 72.9766C157.44 73.0964 156.995 73.1562 156.5 73.1562C155.755 73.1562 155.125 73.0234 154.609 72.7578C154.094 72.4922 153.703 72.1484 153.438 71.7266C153.172 71.3047 153.039 70.8594 153.039 70.3906H154.492C154.513 70.7865 154.628 71.1016 154.836 71.3359C155.044 71.5651 155.299 71.7292 155.602 71.8281C155.904 71.9219 156.203 71.9688 156.5 71.9688C156.896 71.9688 157.227 71.9167 157.492 71.8125C157.763 71.7083 157.969 71.5651 158.109 71.3828C158.25 71.2005 158.32 70.9922 158.32 70.7578ZM165.172 73.1562C164.583 73.1562 164.049 73.0573 163.57 72.8594C163.096 72.6562 162.688 72.3724 162.344 72.0078C162.005 71.6432 161.745 71.2109 161.562 70.7109C161.38 70.2109 161.289 69.6641 161.289 69.0703V68.7422C161.289 68.0547 161.391 67.4427 161.594 66.9062C161.797 66.3646 162.073 65.9062 162.422 65.5312C162.771 65.1562 163.167 64.8724 163.609 64.6797C164.052 64.487 164.51 64.3906 164.984 64.3906C165.589 64.3906 166.109 64.4948 166.547 64.7031C166.99 64.9115 167.352 65.2031 167.633 65.5781C167.914 65.9479 168.122 66.3854 168.258 66.8906C168.393 67.3906 168.461 67.9375 168.461 68.5312V69.1797H162.148V68H167.016V67.8906C166.995 67.5156 166.917 67.151 166.781 66.7969C166.651 66.4427 166.443 66.151 166.156 65.9219C165.87 65.6927 165.479 65.5781 164.984 65.5781C164.656 65.5781 164.354 65.6484 164.078 65.7891C163.802 65.9245 163.565 66.1276 163.367 66.3984C163.169 66.6693 163.016 67 162.906 67.3906C162.797 67.7812 162.742 68.2318 162.742 68.7422V69.0703C162.742 69.4714 162.797 69.849 162.906 70.2031C163.021 70.5521 163.185 70.8594 163.398 71.125C163.617 71.3906 163.88 71.599 164.188 71.75C164.5 71.901 164.854 71.9766 165.25 71.9766C165.76 71.9766 166.193 71.8724 166.547 71.6641C166.901 71.4557 167.211 71.1771 167.477 70.8281L168.352 71.5234C168.169 71.7995 167.938 72.0625 167.656 72.3125C167.375 72.5625 167.029 72.7656 166.617 72.9219C166.211 73.0781 165.729 73.1562 165.172 73.1562ZM175.07 70.7578C175.07 70.5495 175.023 70.3568 174.93 70.1797C174.841 69.9974 174.656 69.8333 174.375 69.6875C174.099 69.5365 173.682 69.4062 173.125 69.2969C172.656 69.1979 172.232 69.0807 171.852 68.9453C171.477 68.8099 171.156 68.6458 170.891 68.4531C170.63 68.2604 170.43 68.0339 170.289 67.7734C170.148 67.513 170.078 67.2083 170.078 66.8594C170.078 66.526 170.151 66.2109 170.297 65.9141C170.448 65.6172 170.659 65.3542 170.93 65.125C171.206 64.8958 171.536 64.7161 171.922 64.5859C172.307 64.4557 172.737 64.3906 173.211 64.3906C173.888 64.3906 174.466 64.5104 174.945 64.75C175.424 64.9896 175.792 65.3099 176.047 65.7109C176.302 66.1068 176.43 66.5469 176.43 67.0312H174.984C174.984 66.7969 174.914 66.5703 174.773 66.3516C174.638 66.1276 174.438 65.9427 174.172 65.7969C173.911 65.651 173.591 65.5781 173.211 65.5781C172.81 65.5781 172.484 65.6406 172.234 65.7656C171.99 65.8854 171.81 66.0391 171.695 66.2266C171.586 66.4141 171.531 66.612 171.531 66.8203C171.531 66.9766 171.557 67.1172 171.609 67.2422C171.667 67.362 171.766 67.474 171.906 67.5781C172.047 67.6771 172.245 67.7708 172.5 67.8594C172.755 67.9479 173.081 68.0365 173.477 68.125C174.169 68.2812 174.74 68.4688 175.188 68.6875C175.635 68.9062 175.969 69.1745 176.188 69.4922C176.406 69.8099 176.516 70.1953 176.516 70.6484C176.516 71.0182 176.438 71.3568 176.281 71.6641C176.13 71.9714 175.909 72.237 175.617 72.4609C175.331 72.6797 174.987 72.8516 174.586 72.9766C174.19 73.0964 173.745 73.1562 173.25 73.1562C172.505 73.1562 171.875 73.0234 171.359 72.7578C170.844 72.4922 170.453 72.1484 170.188 71.7266C169.922 71.3047 169.789 70.8594 169.789 70.3906H171.242C171.263 70.7865 171.378 71.1016 171.586 71.3359C171.794 71.5651 172.049 71.7292 172.352 71.8281C172.654 71.9219 172.953 71.9688 173.25 71.9688C173.646 71.9688 173.977 71.9167 174.242 71.8125C174.513 71.7083 174.719 71.5651 174.859 71.3828C175 71.2005 175.07 70.9922 175.07 70.7578Z" fill="black"/>
</svg>
