<svg width="296" height="80" viewBox="0 0 296 80" fill="none" xmlns="http://www.w3.org/2000/svg">
<path d="M110.215 21.3398H113.223C114.186 21.3398 114.98 21.1771 115.605 20.8516C116.23 20.513 116.693 20.0443 116.992 19.4453C117.305 18.8333 117.461 18.1237 117.461 17.3164C117.461 16.5872 117.318 15.9427 117.031 15.3828C116.758 14.8099 116.335 14.3672 115.762 14.0547C115.189 13.7292 114.466 13.5664 113.594 13.5664C112.904 13.5664 112.266 13.7031 111.68 13.9766C111.094 14.25 110.625 14.6341 110.273 15.1289C109.922 15.6237 109.746 16.2227 109.746 16.9258H104.102C104.102 15.3633 104.518 14.0026 105.352 12.8438C106.198 11.6849 107.331 10.7799 108.75 10.1289C110.169 9.47786 111.732 9.15234 113.438 9.15234C115.365 9.15234 117.051 9.46484 118.496 10.0898C119.941 10.7018 121.068 11.6068 121.875 12.8047C122.682 14.0026 123.086 15.487 123.086 17.2578C123.086 18.1562 122.878 19.0286 122.461 19.875C122.044 20.7083 121.445 21.4635 120.664 22.1406C119.896 22.8047 118.958 23.3385 117.852 23.7422C116.745 24.1328 115.501 24.3281 114.121 24.3281H110.215V21.3398ZM110.215 25.6172V22.707H114.121C115.671 22.707 117.031 22.8828 118.203 23.2344C119.375 23.5859 120.358 24.0938 121.152 24.7578C121.947 25.4089 122.546 26.1836 122.949 27.082C123.353 27.9674 123.555 28.9505 123.555 30.0312C123.555 31.3594 123.301 32.5443 122.793 33.5859C122.285 34.6146 121.569 35.487 120.645 36.2031C119.733 36.9193 118.665 37.4661 117.441 37.8438C116.217 38.2083 114.883 38.3906 113.438 38.3906C112.24 38.3906 111.061 38.2279 109.902 37.9023C108.757 37.5638 107.715 37.0625 106.777 36.3984C105.853 35.7214 105.111 34.875 104.551 33.8594C104.004 32.8307 103.73 31.6133 103.73 30.207H109.375C109.375 30.9362 109.557 31.5872 109.922 32.1602C110.286 32.7331 110.788 33.1823 111.426 33.5078C112.077 33.8333 112.799 33.9961 113.594 33.9961C114.492 33.9961 115.26 33.8333 115.898 33.5078C116.549 33.1693 117.044 32.7005 117.383 32.1016C117.734 31.4896 117.91 30.7799 117.91 29.9727C117.91 28.931 117.721 28.0977 117.344 27.4727C116.966 26.8346 116.426 26.3659 115.723 26.0664C115.02 25.7669 114.186 25.6172 113.223 25.6172H110.215ZM146.738 9.5625V12.5898L135.742 38H129.805L140.801 13.957H126.641V9.5625H146.738ZM169.531 21.2812V26.2031C169.531 28.3385 169.303 30.181 168.848 31.7305C168.392 33.2669 167.734 34.5299 166.875 35.5195C166.029 36.4961 165.02 37.2188 163.848 37.6875C162.676 38.1562 161.374 38.3906 159.941 38.3906C158.796 38.3906 157.728 38.2474 156.738 37.9609C155.749 37.6615 154.857 37.1992 154.062 36.5742C153.281 35.9492 152.604 35.1615 152.031 34.2109C151.471 33.2474 151.042 32.1016 150.742 30.7734C150.443 29.4453 150.293 27.9219 150.293 26.2031V21.2812C150.293 19.1458 150.521 17.3164 150.977 15.793C151.445 14.2565 152.103 13 152.949 12.0234C153.809 11.0469 154.824 10.3307 155.996 9.875C157.168 9.40625 158.47 9.17188 159.902 9.17188C161.048 9.17188 162.109 9.32161 163.086 9.62109C164.076 9.90755 164.967 10.3568 165.762 10.9688C166.556 11.5807 167.233 12.3685 167.793 13.332C168.353 14.2826 168.783 15.4219 169.082 16.75C169.382 18.0651 169.531 19.5755 169.531 21.2812ZM163.887 26.9453V20.5195C163.887 19.4909 163.828 18.5924 163.711 17.8242C163.607 17.056 163.444 16.4049 163.223 15.8711C163.001 15.3242 162.728 14.8815 162.402 14.543C162.077 14.2044 161.706 13.957 161.289 13.8008C160.872 13.6445 160.41 13.5664 159.902 13.5664C159.264 13.5664 158.698 13.6901 158.203 13.9375C157.721 14.1849 157.311 14.582 156.973 15.1289C156.634 15.6628 156.374 16.3789 156.191 17.2773C156.022 18.1628 155.938 19.2435 155.938 20.5195V26.9453C155.938 27.974 155.99 28.8789 156.094 29.6602C156.211 30.4414 156.38 31.112 156.602 31.6719C156.836 32.2188 157.109 32.668 157.422 33.0195C157.747 33.3581 158.118 33.6055 158.535 33.7617C158.965 33.918 159.434 33.9961 159.941 33.9961C160.566 33.9961 161.12 33.8724 161.602 33.625C162.096 33.3646 162.513 32.9609 162.852 32.4141C163.203 31.8542 163.464 31.125 163.633 30.2266C163.802 29.3281 163.887 28.2344 163.887 26.9453ZM179.219 7.98047V38H173.594V7.98047H179.219ZM192.539 16.8672L183.359 27.3359L178.438 32.3164L176.387 28.2539L180.293 23.293L185.781 16.8672H192.539ZM186.699 38L180.449 28.2344L184.336 24.8359L193.184 38H186.699Z" fill="black"/>
<path d="M123.383 70.125C123.383 69.8594 123.341 69.625 123.258 69.4219C123.18 69.2135 123.039 69.026 122.836 68.8594C122.638 68.6927 122.362 68.5339 122.008 68.3828C121.659 68.2318 121.216 68.0781 120.68 67.9219C120.117 67.7552 119.609 67.5703 119.156 67.3672C118.703 67.1589 118.315 66.9219 117.992 66.6562C117.669 66.3906 117.422 66.0859 117.25 65.7422C117.078 65.3984 116.992 65.0052 116.992 64.5625C116.992 64.1198 117.083 63.7109 117.266 63.3359C117.448 62.9609 117.708 62.6354 118.047 62.3594C118.391 62.0781 118.799 61.8594 119.273 61.7031C119.747 61.5469 120.276 61.4688 120.859 61.4688C121.714 61.4688 122.438 61.6328 123.031 61.9609C123.63 62.2839 124.086 62.7083 124.398 63.2344C124.711 63.7552 124.867 64.3125 124.867 64.9062H123.367C123.367 64.4792 123.276 64.1016 123.094 63.7734C122.911 63.4401 122.635 63.1797 122.266 62.9922C121.896 62.7995 121.427 62.7031 120.859 62.7031C120.323 62.7031 119.88 62.7839 119.531 62.9453C119.182 63.1068 118.922 63.3255 118.75 63.6016C118.583 63.8776 118.5 64.1927 118.5 64.5469C118.5 64.7865 118.549 65.0052 118.648 65.2031C118.753 65.3958 118.911 65.5755 119.125 65.7422C119.344 65.9089 119.62 66.0625 119.953 66.2031C120.292 66.3438 120.695 66.4792 121.164 66.6094C121.81 66.7917 122.367 66.9948 122.836 67.2188C123.305 67.4427 123.69 67.6953 123.992 67.9766C124.299 68.2526 124.526 68.5677 124.672 68.9219C124.823 69.2708 124.898 69.6667 124.898 70.1094C124.898 70.5729 124.805 70.9922 124.617 71.3672C124.43 71.7422 124.161 72.0625 123.812 72.3281C123.464 72.5938 123.044 72.7995 122.555 72.9453C122.07 73.0859 121.529 73.1562 120.93 73.1562C120.404 73.1562 119.885 73.0833 119.375 72.9375C118.87 72.7917 118.409 72.5729 117.992 72.2812C117.581 71.9896 117.25 71.6302 117 71.2031C116.755 70.7708 116.633 70.2708 116.633 69.7031H118.133C118.133 70.0938 118.208 70.4297 118.359 70.7109C118.51 70.987 118.716 71.2161 118.977 71.3984C119.242 71.5807 119.542 71.7161 119.875 71.8047C120.214 71.888 120.565 71.9297 120.93 71.9297C121.456 71.9297 121.901 71.8568 122.266 71.7109C122.63 71.5651 122.906 71.3568 123.094 71.0859C123.286 70.8151 123.383 70.4948 123.383 70.125ZM130.141 64.5469V65.6562H125.57V64.5469H130.141ZM127.117 62.4922H128.562V70.9062C128.562 71.1927 128.607 71.4089 128.695 71.5547C128.784 71.7005 128.898 71.7969 129.039 71.8438C129.18 71.8906 129.331 71.9141 129.492 71.9141C129.612 71.9141 129.737 71.9036 129.867 71.8828C130.003 71.8568 130.104 71.8359 130.172 71.8203L130.18 73C130.065 73.0365 129.914 73.0703 129.727 73.1016C129.544 73.138 129.323 73.1562 129.062 73.1562C128.708 73.1562 128.383 73.0859 128.086 72.9453C127.789 72.8047 127.552 72.5703 127.375 72.2422C127.203 71.9089 127.117 71.4609 127.117 70.8984V62.4922ZM137.008 71.0469V64.5469H138.461V73H137.078L137.008 71.0469ZM137.281 69.2656L137.883 69.25C137.883 69.8125 137.823 70.3333 137.703 70.8125C137.589 71.2865 137.401 71.6979 137.141 72.0469C136.88 72.3958 136.539 72.6693 136.117 72.8672C135.695 73.0599 135.182 73.1562 134.578 73.1562C134.167 73.1562 133.789 73.0964 133.445 72.9766C133.107 72.8568 132.815 72.6719 132.57 72.4219C132.326 72.1719 132.135 71.8464 132 71.4453C131.87 71.0443 131.805 70.5625 131.805 70V64.5469H133.25V70.0156C133.25 70.3958 133.292 70.7109 133.375 70.9609C133.464 71.2057 133.581 71.401 133.727 71.5469C133.878 71.6875 134.044 71.7865 134.227 71.8438C134.414 71.901 134.607 71.9297 134.805 71.9297C135.419 71.9297 135.906 71.8125 136.266 71.5781C136.625 71.3385 136.883 71.0182 137.039 70.6172C137.201 70.2109 137.281 69.7604 137.281 69.2656ZM145.992 71.3594V61H147.445V73H146.117L145.992 71.3594ZM140.305 68.8672V68.7031C140.305 68.0573 140.383 67.4714 140.539 66.9453C140.701 66.4141 140.927 65.9583 141.219 65.5781C141.516 65.1979 141.867 64.9062 142.273 64.7031C142.685 64.4948 143.143 64.3906 143.648 64.3906C144.18 64.3906 144.643 64.4844 145.039 64.6719C145.44 64.8542 145.779 65.1224 146.055 65.4766C146.336 65.8255 146.557 66.2474 146.719 66.7422C146.88 67.237 146.992 67.7969 147.055 68.4219V69.1406C146.997 69.7604 146.885 70.3177 146.719 70.8125C146.557 71.3073 146.336 71.7292 146.055 72.0781C145.779 72.4271 145.44 72.6953 145.039 72.8828C144.638 73.0651 144.169 73.1562 143.633 73.1562C143.138 73.1562 142.685 73.0495 142.273 72.8359C141.867 72.6224 141.516 72.3229 141.219 71.9375C140.927 71.5521 140.701 71.099 140.539 70.5781C140.383 70.0521 140.305 69.4818 140.305 68.8672ZM141.758 68.7031V68.8672C141.758 69.2891 141.799 69.6849 141.883 70.0547C141.971 70.4245 142.107 70.75 142.289 71.0312C142.471 71.3125 142.703 71.5339 142.984 71.6953C143.266 71.8516 143.602 71.9297 143.992 71.9297C144.471 71.9297 144.865 71.8281 145.172 71.625C145.484 71.4219 145.734 71.1536 145.922 70.8203C146.109 70.487 146.255 70.125 146.359 69.7344V67.8516C146.297 67.5651 146.206 67.2891 146.086 67.0234C145.971 66.7526 145.82 66.513 145.633 66.3047C145.451 66.0911 145.224 65.9219 144.953 65.7969C144.688 65.6719 144.372 65.6094 144.008 65.6094C143.612 65.6094 143.271 65.6927 142.984 65.8594C142.703 66.0208 142.471 66.2448 142.289 66.5312C142.107 66.8125 141.971 67.1406 141.883 67.5156C141.799 67.8854 141.758 68.2812 141.758 68.7031ZM153.203 73.1562C152.615 73.1562 152.081 73.0573 151.602 72.8594C151.128 72.6562 150.719 72.3724 150.375 72.0078C150.036 71.6432 149.776 71.2109 149.594 70.7109C149.411 70.2109 149.32 69.6641 149.32 69.0703V68.7422C149.32 68.0547 149.422 67.4427 149.625 66.9062C149.828 66.3646 150.104 65.9062 150.453 65.5312C150.802 65.1562 151.198 64.8724 151.641 64.6797C152.083 64.487 152.542 64.3906 153.016 64.3906C153.62 64.3906 154.141 64.4948 154.578 64.7031C155.021 64.9115 155.383 65.2031 155.664 65.5781C155.945 65.9479 156.154 66.3854 156.289 66.8906C156.424 67.3906 156.492 67.9375 156.492 68.5312V69.1797H150.18V68H155.047V67.8906C155.026 67.5156 154.948 67.151 154.812 66.7969C154.682 66.4427 154.474 66.151 154.188 65.9219C153.901 65.6927 153.51 65.5781 153.016 65.5781C152.688 65.5781 152.385 65.6484 152.109 65.7891C151.833 65.9245 151.596 66.1276 151.398 66.3984C151.201 66.6693 151.047 67 150.938 67.3906C150.828 67.7812 150.773 68.2318 150.773 68.7422V69.0703C150.773 69.4714 150.828 69.849 150.938 70.2031C151.052 70.5521 151.216 70.8594 151.43 71.125C151.648 71.3906 151.911 71.599 152.219 71.75C152.531 71.901 152.885 71.9766 153.281 71.9766C153.792 71.9766 154.224 71.8724 154.578 71.6641C154.932 71.4557 155.242 71.1771 155.508 70.8281L156.383 71.5234C156.201 71.7995 155.969 72.0625 155.688 72.3125C155.406 72.5625 155.06 72.7656 154.648 72.9219C154.242 73.0781 153.76 73.1562 153.203 73.1562ZM159.625 66.3516V73H158.18V64.5469H159.547L159.625 66.3516ZM159.281 68.4531L158.68 68.4297C158.685 67.8516 158.771 67.3177 158.938 66.8281C159.104 66.3333 159.339 65.9036 159.641 65.5391C159.943 65.1745 160.302 64.8932 160.719 64.6953C161.141 64.4922 161.607 64.3906 162.117 64.3906C162.534 64.3906 162.909 64.4479 163.242 64.5625C163.576 64.6719 163.859 64.849 164.094 65.0938C164.333 65.3385 164.516 65.6562 164.641 66.0469C164.766 66.4323 164.828 66.9036 164.828 67.4609V73H163.375V67.4453C163.375 67.0026 163.31 66.6484 163.18 66.3828C163.049 66.112 162.859 65.9167 162.609 65.7969C162.359 65.6719 162.052 65.6094 161.688 65.6094C161.328 65.6094 161 65.6849 160.703 65.8359C160.411 65.987 160.159 66.1953 159.945 66.4609C159.737 66.7266 159.573 67.0312 159.453 67.375C159.339 67.7135 159.281 68.0729 159.281 68.4531ZM170.562 64.5469V65.6562H165.992V64.5469H170.562ZM167.539 62.4922H168.984V70.9062C168.984 71.1927 169.029 71.4089 169.117 71.5547C169.206 71.7005 169.32 71.7969 169.461 71.8438C169.602 71.8906 169.753 71.9141 169.914 71.9141C170.034 71.9141 170.159 71.9036 170.289 71.8828C170.424 71.8568 170.526 71.8359 170.594 71.8203L170.602 73C170.487 73.0365 170.336 73.0703 170.148 73.1016C169.966 73.138 169.745 73.1562 169.484 73.1562C169.13 73.1562 168.805 73.0859 168.508 72.9453C168.211 72.8047 167.974 72.5703 167.797 72.2422C167.625 71.9089 167.539 71.4609 167.539 70.8984V62.4922ZM177.18 70.7578C177.18 70.5495 177.133 70.3568 177.039 70.1797C176.951 69.9974 176.766 69.8333 176.484 69.6875C176.208 69.5365 175.792 69.4062 175.234 69.2969C174.766 69.1979 174.341 69.0807 173.961 68.9453C173.586 68.8099 173.266 68.6458 173 68.4531C172.74 68.2604 172.539 68.0339 172.398 67.7734C172.258 67.513 172.188 67.2083 172.188 66.8594C172.188 66.526 172.26 66.2109 172.406 65.9141C172.557 65.6172 172.768 65.3542 173.039 65.125C173.315 64.8958 173.646 64.7161 174.031 64.5859C174.417 64.4557 174.846 64.3906 175.32 64.3906C175.997 64.3906 176.576 64.5104 177.055 64.75C177.534 64.9896 177.901 65.3099 178.156 65.7109C178.411 66.1068 178.539 66.5469 178.539 67.0312H177.094C177.094 66.7969 177.023 66.5703 176.883 66.3516C176.747 66.1276 176.547 65.9427 176.281 65.7969C176.021 65.651 175.701 65.5781 175.32 65.5781C174.919 65.5781 174.594 65.6406 174.344 65.7656C174.099 65.8854 173.919 66.0391 173.805 66.2266C173.695 66.4141 173.641 66.612 173.641 66.8203C173.641 66.9766 173.667 67.1172 173.719 67.2422C173.776 67.362 173.875 67.474 174.016 67.5781C174.156 67.6771 174.354 67.7708 174.609 67.8594C174.865 67.9479 175.19 68.0365 175.586 68.125C176.279 68.2812 176.849 68.4688 177.297 68.6875C177.745 68.9062 178.078 69.1745 178.297 69.4922C178.516 69.8099 178.625 70.1953 178.625 70.6484C178.625 71.0182 178.547 71.3568 178.391 71.6641C178.24 71.9714 178.018 72.237 177.727 72.4609C177.44 72.6797 177.096 72.8516 176.695 72.9766C176.299 73.0964 175.854 73.1562 175.359 73.1562C174.615 73.1562 173.984 73.0234 173.469 72.7578C172.953 72.4922 172.562 72.1484 172.297 71.7266C172.031 71.3047 171.898 70.8594 171.898 70.3906H173.352C173.372 70.7865 173.487 71.1016 173.695 71.3359C173.904 71.5651 174.159 71.7292 174.461 71.8281C174.763 71.9219 175.062 71.9688 175.359 71.9688C175.755 71.9688 176.086 71.9167 176.352 71.8125C176.622 71.7083 176.828 71.5651 176.969 71.3828C177.109 71.2005 177.18 70.9922 177.18 70.7578Z" fill="black"/>
</svg>
