<svg width="296" height="80" viewBox="0 0 296 80" fill="none" xmlns="http://www.w3.org/2000/svg">
<path d="M118.164 9.50391V38H112.539V15.9883L105.781 18.1367V13.7031L117.559 9.50391H118.164ZM146.562 21.2812V26.2031C146.562 28.3385 146.335 30.181 145.879 31.7305C145.423 33.2669 144.766 34.5299 143.906 35.5195C143.06 36.4961 142.051 37.2188 140.879 37.6875C139.707 38.1562 138.405 38.3906 136.973 38.3906C135.827 38.3906 134.759 38.2474 133.77 37.9609C132.78 37.6615 131.888 37.1992 131.094 36.5742C130.312 35.9492 129.635 35.1615 129.062 34.2109C128.503 33.2474 128.073 32.1016 127.773 30.7734C127.474 29.4453 127.324 27.9219 127.324 26.2031V21.2812C127.324 19.1458 127.552 17.3164 128.008 15.793C128.477 14.2565 129.134 13 129.98 12.0234C130.84 11.0469 131.855 10.3307 133.027 9.875C134.199 9.40625 135.501 9.17188 136.934 9.17188C138.079 9.17188 139.141 9.32161 140.117 9.62109C141.107 9.90755 141.999 10.3568 142.793 10.9688C143.587 11.5807 144.264 12.3685 144.824 13.332C145.384 14.2826 145.814 15.4219 146.113 16.75C146.413 18.0651 146.562 19.5755 146.562 21.2812ZM140.918 26.9453V20.5195C140.918 19.4909 140.859 18.5924 140.742 17.8242C140.638 17.056 140.475 16.4049 140.254 15.8711C140.033 15.3242 139.759 14.8815 139.434 14.543C139.108 14.2044 138.737 13.957 138.32 13.8008C137.904 13.6445 137.441 13.5664 136.934 13.5664C136.296 13.5664 135.729 13.6901 135.234 13.9375C134.753 14.1849 134.342 14.582 134.004 15.1289C133.665 15.6628 133.405 16.3789 133.223 17.2773C133.053 18.1628 132.969 19.2435 132.969 20.5195V26.9453C132.969 27.974 133.021 28.8789 133.125 29.6602C133.242 30.4414 133.411 31.112 133.633 31.6719C133.867 32.2188 134.141 32.668 134.453 33.0195C134.779 33.3581 135.15 33.6055 135.566 33.7617C135.996 33.918 136.465 33.9961 136.973 33.9961C137.598 33.9961 138.151 33.8724 138.633 33.625C139.128 33.3646 139.544 32.9609 139.883 32.4141C140.234 31.8542 140.495 31.125 140.664 30.2266C140.833 29.3281 140.918 28.2344 140.918 26.9453ZM169.531 21.2812V26.2031C169.531 28.3385 169.303 30.181 168.848 31.7305C168.392 33.2669 167.734 34.5299 166.875 35.5195C166.029 36.4961 165.02 37.2188 163.848 37.6875C162.676 38.1562 161.374 38.3906 159.941 38.3906C158.796 38.3906 157.728 38.2474 156.738 37.9609C155.749 37.6615 154.857 37.1992 154.062 36.5742C153.281 35.9492 152.604 35.1615 152.031 34.2109C151.471 33.2474 151.042 32.1016 150.742 30.7734C150.443 29.4453 150.293 27.9219 150.293 26.2031V21.2812C150.293 19.1458 150.521 17.3164 150.977 15.793C151.445 14.2565 152.103 13 152.949 12.0234C153.809 11.0469 154.824 10.3307 155.996 9.875C157.168 9.40625 158.47 9.17188 159.902 9.17188C161.048 9.17188 162.109 9.32161 163.086 9.62109C164.076 9.90755 164.967 10.3568 165.762 10.9688C166.556 11.5807 167.233 12.3685 167.793 13.332C168.353 14.2826 168.783 15.4219 169.082 16.75C169.382 18.0651 169.531 19.5755 169.531 21.2812ZM163.887 26.9453V20.5195C163.887 19.4909 163.828 18.5924 163.711 17.8242C163.607 17.056 163.444 16.4049 163.223 15.8711C163.001 15.3242 162.728 14.8815 162.402 14.543C162.077 14.2044 161.706 13.957 161.289 13.8008C160.872 13.6445 160.41 13.5664 159.902 13.5664C159.264 13.5664 158.698 13.6901 158.203 13.9375C157.721 14.1849 157.311 14.582 156.973 15.1289C156.634 15.6628 156.374 16.3789 156.191 17.2773C156.022 18.1628 155.938 19.2435 155.938 20.5195V26.9453C155.938 27.974 155.99 28.8789 156.094 29.6602C156.211 30.4414 156.38 31.112 156.602 31.6719C156.836 32.2188 157.109 32.668 157.422 33.0195C157.747 33.3581 158.118 33.6055 158.535 33.7617C158.965 33.918 159.434 33.9961 159.941 33.9961C160.566 33.9961 161.12 33.8724 161.602 33.625C162.096 33.3646 162.513 32.9609 162.852 32.4141C163.203 31.8542 163.464 31.125 163.633 30.2266C163.802 29.3281 163.887 28.2344 163.887 26.9453ZM191.992 22.1602V27.0625H172.5V22.1602H191.992ZM184.922 14.4453V35.1484H179.59V14.4453H184.922Z" fill="black"/>
<path d="M106.82 61.625H110.586C111.44 61.625 112.161 61.7552 112.75 62.0156C113.344 62.276 113.794 62.6615 114.102 63.1719C114.414 63.6771 114.57 64.2995 114.57 65.0391C114.57 65.5599 114.464 66.0365 114.25 66.4688C114.042 66.8958 113.74 67.2604 113.344 67.5625C112.953 67.8594 112.484 68.0807 111.938 68.2266L111.516 68.3906H107.977L107.961 67.1641H110.633C111.174 67.1641 111.625 67.0703 111.984 66.8828C112.344 66.6901 112.615 66.4323 112.797 66.1094C112.979 65.7865 113.07 65.4297 113.07 65.0391C113.07 64.6016 112.984 64.2188 112.812 63.8906C112.641 63.5625 112.37 63.3099 112 63.1328C111.635 62.9505 111.164 62.8594 110.586 62.8594H108.328V73H106.82V61.625ZM113.469 73L110.703 67.8438L112.273 67.8359L115.078 72.9062V73H113.469ZM119.969 73.1562C119.38 73.1562 118.846 73.0573 118.367 72.8594C117.893 72.6562 117.484 72.3724 117.141 72.0078C116.802 71.6432 116.542 71.2109 116.359 70.7109C116.177 70.2109 116.086 69.6641 116.086 69.0703V68.7422C116.086 68.0547 116.188 67.4427 116.391 66.9062C116.594 66.3646 116.87 65.9062 117.219 65.5312C117.568 65.1562 117.964 64.8724 118.406 64.6797C118.849 64.487 119.307 64.3906 119.781 64.3906C120.385 64.3906 120.906 64.4948 121.344 64.7031C121.786 64.9115 122.148 65.2031 122.43 65.5781C122.711 65.9479 122.919 66.3854 123.055 66.8906C123.19 67.3906 123.258 67.9375 123.258 68.5312V69.1797H116.945V68H121.812V67.8906C121.792 67.5156 121.714 67.151 121.578 66.7969C121.448 66.4427 121.24 66.151 120.953 65.9219C120.667 65.6927 120.276 65.5781 119.781 65.5781C119.453 65.5781 119.151 65.6484 118.875 65.7891C118.599 65.9245 118.362 66.1276 118.164 66.3984C117.966 66.6693 117.812 67 117.703 67.3906C117.594 67.7812 117.539 68.2318 117.539 68.7422V69.0703C117.539 69.4714 117.594 69.849 117.703 70.2031C117.818 70.5521 117.982 70.8594 118.195 71.125C118.414 71.3906 118.677 71.599 118.984 71.75C119.297 71.901 119.651 71.9766 120.047 71.9766C120.557 71.9766 120.99 71.8724 121.344 71.6641C121.698 71.4557 122.008 71.1771 122.273 70.8281L123.148 71.5234C122.966 71.7995 122.734 72.0625 122.453 72.3125C122.172 72.5625 121.826 72.7656 121.414 72.9219C121.008 73.0781 120.526 73.1562 119.969 73.1562ZM128.328 71.9688C128.672 71.9688 128.99 71.8984 129.281 71.7578C129.573 71.6172 129.812 71.4245 130 71.1797C130.188 70.9297 130.294 70.6458 130.32 70.3281H131.695C131.669 70.8281 131.5 71.2943 131.188 71.7266C130.88 72.1536 130.477 72.5 129.977 72.7656C129.477 73.026 128.927 73.1562 128.328 73.1562C127.693 73.1562 127.138 73.0443 126.664 72.8203C126.195 72.5964 125.805 72.2891 125.492 71.8984C125.185 71.5078 124.953 71.0599 124.797 70.5547C124.646 70.0443 124.57 69.5052 124.57 68.9375V68.6094C124.57 68.0417 124.646 67.5052 124.797 67C124.953 66.4896 125.185 66.0391 125.492 65.6484C125.805 65.2578 126.195 64.9505 126.664 64.7266C127.138 64.5026 127.693 64.3906 128.328 64.3906C128.99 64.3906 129.568 64.526 130.062 64.7969C130.557 65.0625 130.945 65.4271 131.227 65.8906C131.513 66.349 131.669 66.8698 131.695 67.4531H130.32C130.294 67.1042 130.195 66.7891 130.023 66.5078C129.857 66.2266 129.628 66.0026 129.336 65.8359C129.049 65.6641 128.714 65.5781 128.328 65.5781C127.885 65.5781 127.513 65.6667 127.211 65.8438C126.914 66.0156 126.677 66.25 126.5 66.5469C126.328 66.8385 126.203 67.1641 126.125 67.5234C126.052 67.8776 126.016 68.2396 126.016 68.6094V68.9375C126.016 69.3073 126.052 69.6719 126.125 70.0312C126.198 70.3906 126.32 70.7161 126.492 71.0078C126.669 71.2995 126.906 71.5339 127.203 71.7109C127.505 71.8828 127.88 71.9688 128.328 71.9688ZM132.938 68.8672V68.6875C132.938 68.0781 133.026 67.513 133.203 66.9922C133.38 66.4661 133.635 66.0104 133.969 65.625C134.302 65.2344 134.706 64.9323 135.18 64.7188C135.654 64.5 136.185 64.3906 136.773 64.3906C137.367 64.3906 137.901 64.5 138.375 64.7188C138.854 64.9323 139.26 65.2344 139.594 65.625C139.932 66.0104 140.19 66.4661 140.367 66.9922C140.544 67.513 140.633 68.0781 140.633 68.6875V68.8672C140.633 69.4766 140.544 70.0417 140.367 70.5625C140.19 71.0833 139.932 71.5391 139.594 71.9297C139.26 72.3151 138.857 72.6172 138.383 72.8359C137.914 73.0495 137.383 73.1562 136.789 73.1562C136.195 73.1562 135.661 73.0495 135.188 72.8359C134.714 72.6172 134.307 72.3151 133.969 71.9297C133.635 71.5391 133.38 71.0833 133.203 70.5625C133.026 70.0417 132.938 69.4766 132.938 68.8672ZM134.383 68.6875V68.8672C134.383 69.2891 134.432 69.6875 134.531 70.0625C134.63 70.4323 134.779 70.7604 134.977 71.0469C135.18 71.3333 135.432 71.5599 135.734 71.7266C136.036 71.888 136.388 71.9688 136.789 71.9688C137.185 71.9688 137.531 71.888 137.828 71.7266C138.13 71.5599 138.38 71.3333 138.578 71.0469C138.776 70.7604 138.924 70.4323 139.023 70.0625C139.128 69.6875 139.18 69.2891 139.18 68.8672V68.6875C139.18 68.2708 139.128 67.8776 139.023 67.5078C138.924 67.1328 138.773 66.8021 138.57 66.5156C138.372 66.224 138.122 65.9948 137.82 65.8281C137.523 65.6615 137.174 65.5781 136.773 65.5781C136.378 65.5781 136.029 65.6615 135.727 65.8281C135.43 65.9948 135.18 66.224 134.977 66.5156C134.779 66.8021 134.63 67.1328 134.531 67.5078C134.432 67.8776 134.383 68.2708 134.383 68.6875ZM147.922 64.5469H149.234V72.8203C149.234 73.5651 149.083 74.2005 148.781 74.7266C148.479 75.2526 148.057 75.651 147.516 75.9219C146.979 76.1979 146.359 76.3359 145.656 76.3359C145.365 76.3359 145.021 76.2891 144.625 76.1953C144.234 76.1068 143.849 75.9531 143.469 75.7344C143.094 75.5208 142.779 75.2318 142.523 74.8672L143.281 74.0078C143.635 74.4349 144.005 74.7318 144.391 74.8984C144.781 75.0651 145.167 75.1484 145.547 75.1484C146.005 75.1484 146.401 75.0625 146.734 74.8906C147.068 74.7188 147.326 74.4635 147.508 74.125C147.695 73.7917 147.789 73.3802 147.789 72.8906V66.4062L147.922 64.5469ZM142.102 68.8672V68.7031C142.102 68.0573 142.177 67.4714 142.328 66.9453C142.484 66.4141 142.706 65.9583 142.992 65.5781C143.284 65.1979 143.635 64.9062 144.047 64.7031C144.458 64.4948 144.922 64.3906 145.438 64.3906C145.969 64.3906 146.432 64.4844 146.828 64.6719C147.229 64.8542 147.568 65.1224 147.844 65.4766C148.125 65.8255 148.346 66.2474 148.508 66.7422C148.669 67.237 148.781 67.7969 148.844 68.4219V69.1406C148.786 69.7604 148.674 70.3177 148.508 70.8125C148.346 71.3073 148.125 71.7292 147.844 72.0781C147.568 72.4271 147.229 72.6953 146.828 72.8828C146.427 73.0651 145.958 73.1562 145.422 73.1562C144.917 73.1562 144.458 73.0495 144.047 72.8359C143.641 72.6224 143.292 72.3229 143 71.9375C142.708 71.5521 142.484 71.099 142.328 70.5781C142.177 70.0521 142.102 69.4818 142.102 68.8672ZM143.547 68.7031V68.8672C143.547 69.2891 143.589 69.6849 143.672 70.0547C143.76 70.4245 143.893 70.75 144.07 71.0312C144.253 71.3125 144.484 71.5339 144.766 71.6953C145.047 71.8516 145.383 71.9297 145.773 71.9297C146.253 71.9297 146.648 71.8281 146.961 71.625C147.273 71.4219 147.521 71.1536 147.703 70.8203C147.891 70.487 148.036 70.125 148.141 69.7344V67.8516C148.083 67.5651 147.995 67.2891 147.875 67.0234C147.76 66.7526 147.609 66.513 147.422 66.3047C147.24 66.0911 147.013 65.9219 146.742 65.7969C146.471 65.6719 146.154 65.6094 145.789 65.6094C145.393 65.6094 145.052 65.6927 144.766 65.8594C144.484 66.0208 144.253 66.2448 144.07 66.5312C143.893 66.8125 143.76 67.1406 143.672 67.5156C143.589 67.8854 143.547 68.2812 143.547 68.7031ZM152.875 66.3516V73H151.43V64.5469H152.797L152.875 66.3516ZM152.531 68.4531L151.93 68.4297C151.935 67.8516 152.021 67.3177 152.188 66.8281C152.354 66.3333 152.589 65.9036 152.891 65.5391C153.193 65.1745 153.552 64.8932 153.969 64.6953C154.391 64.4922 154.857 64.3906 155.367 64.3906C155.784 64.3906 156.159 64.4479 156.492 64.5625C156.826 64.6719 157.109 64.849 157.344 65.0938C157.583 65.3385 157.766 65.6562 157.891 66.0469C158.016 66.4323 158.078 66.9036 158.078 67.4609V73H156.625V67.4453C156.625 67.0026 156.56 66.6484 156.43 66.3828C156.299 66.112 156.109 65.9167 155.859 65.7969C155.609 65.6719 155.302 65.6094 154.938 65.6094C154.578 65.6094 154.25 65.6849 153.953 65.8359C153.661 65.987 153.409 66.1953 153.195 66.4609C152.987 66.7266 152.823 67.0312 152.703 67.375C152.589 67.7135 152.531 68.0729 152.531 68.4531ZM161.844 64.5469V73H160.391V64.5469H161.844ZM160.281 62.3047C160.281 62.0703 160.352 61.8724 160.492 61.7109C160.638 61.5495 160.852 61.4688 161.133 61.4688C161.409 61.4688 161.62 61.5495 161.766 61.7109C161.917 61.8724 161.992 62.0703 161.992 62.3047C161.992 62.5286 161.917 62.7214 161.766 62.8828C161.62 63.0391 161.409 63.1172 161.133 63.1172C160.852 63.1172 160.638 63.0391 160.492 62.8828C160.352 62.7214 160.281 62.5286 160.281 62.3047ZM167.703 64.5469V65.6562H163.133V64.5469H167.703ZM164.68 62.4922H166.125V70.9062C166.125 71.1927 166.169 71.4089 166.258 71.5547C166.346 71.7005 166.461 71.7969 166.602 71.8438C166.742 71.8906 166.893 71.9141 167.055 71.9141C167.174 71.9141 167.299 71.9036 167.43 71.8828C167.565 71.8568 167.667 71.8359 167.734 71.8203L167.742 73C167.628 73.0365 167.477 73.0703 167.289 73.1016C167.107 73.138 166.885 73.1562 166.625 73.1562C166.271 73.1562 165.945 73.0859 165.648 72.9453C165.352 72.8047 165.115 72.5703 164.938 72.2422C164.766 71.9089 164.68 71.4609 164.68 70.8984V62.4922ZM170.969 64.5469V73H169.516V64.5469H170.969ZM169.406 62.3047C169.406 62.0703 169.477 61.8724 169.617 61.7109C169.763 61.5495 169.977 61.4688 170.258 61.4688C170.534 61.4688 170.745 61.5495 170.891 61.7109C171.042 61.8724 171.117 62.0703 171.117 62.3047C171.117 62.5286 171.042 62.7214 170.891 62.8828C170.745 63.0391 170.534 63.1172 170.258 63.1172C169.977 63.1172 169.763 63.0391 169.617 62.8828C169.477 62.7214 169.406 62.5286 169.406 62.3047ZM172.906 68.8672V68.6875C172.906 68.0781 172.995 67.513 173.172 66.9922C173.349 66.4661 173.604 66.0104 173.938 65.625C174.271 65.2344 174.674 64.9323 175.148 64.7188C175.622 64.5 176.154 64.3906 176.742 64.3906C177.336 64.3906 177.87 64.5 178.344 64.7188C178.823 64.9323 179.229 65.2344 179.562 65.625C179.901 66.0104 180.159 66.4661 180.336 66.9922C180.513 67.513 180.602 68.0781 180.602 68.6875V68.8672C180.602 69.4766 180.513 70.0417 180.336 70.5625C180.159 71.0833 179.901 71.5391 179.562 71.9297C179.229 72.3151 178.826 72.6172 178.352 72.8359C177.883 73.0495 177.352 73.1562 176.758 73.1562C176.164 73.1562 175.63 73.0495 175.156 72.8359C174.682 72.6172 174.276 72.3151 173.938 71.9297C173.604 71.5391 173.349 71.0833 173.172 70.5625C172.995 70.0417 172.906 69.4766 172.906 68.8672ZM174.352 68.6875V68.8672C174.352 69.2891 174.401 69.6875 174.5 70.0625C174.599 70.4323 174.747 70.7604 174.945 71.0469C175.148 71.3333 175.401 71.5599 175.703 71.7266C176.005 71.888 176.357 71.9688 176.758 71.9688C177.154 71.9688 177.5 71.888 177.797 71.7266C178.099 71.5599 178.349 71.3333 178.547 71.0469C178.745 70.7604 178.893 70.4323 178.992 70.0625C179.096 69.6875 179.148 69.2891 179.148 68.8672V68.6875C179.148 68.2708 179.096 67.8776 178.992 67.5078C178.893 67.1328 178.742 66.8021 178.539 66.5156C178.341 66.224 178.091 65.9948 177.789 65.8281C177.492 65.6615 177.143 65.5781 176.742 65.5781C176.346 65.5781 175.997 65.6615 175.695 65.8281C175.398 65.9948 175.148 66.224 174.945 66.5156C174.747 66.8021 174.599 67.1328 174.5 67.5078C174.401 67.8776 174.352 68.2708 174.352 68.6875ZM183.859 66.3516V73H182.414V64.5469H183.781L183.859 66.3516ZM183.516 68.4531L182.914 68.4297C182.919 67.8516 183.005 67.3177 183.172 66.8281C183.339 66.3333 183.573 65.9036 183.875 65.5391C184.177 65.1745 184.536 64.8932 184.953 64.6953C185.375 64.4922 185.841 64.3906 186.352 64.3906C186.768 64.3906 187.143 64.4479 187.477 64.5625C187.81 64.6719 188.094 64.849 188.328 65.0938C188.568 65.3385 188.75 65.6562 188.875 66.0469C189 66.4323 189.062 66.9036 189.062 67.4609V73H187.609V67.4453C187.609 67.0026 187.544 66.6484 187.414 66.3828C187.284 66.112 187.094 65.9167 186.844 65.7969C186.594 65.6719 186.286 65.6094 185.922 65.6094C185.562 65.6094 185.234 65.6849 184.938 65.8359C184.646 65.987 184.393 66.1953 184.18 66.4609C183.971 66.7266 183.807 67.0312 183.688 67.375C183.573 67.7135 183.516 68.0729 183.516 68.4531Z" fill="black"/>
</svg>
